<mxfile host="Electron" modified="2023-11-21T23:49:12.389Z" agent="Mozilla/5.0 (Windows NT 10.0; Win64; x64) AppleWebKit/537.36 (KHTML, like Gecko) draw.io/21.6.8 Chrome/114.0.5735.289 Electron/25.5.0 Safari/537.36" etag="ebIfddeO5jF9HDZW556y" version="21.6.8" type="device">
  <diagram id="C5RBs43oDa-KdzZeNtuy" name="Page-1">
    <mxGraphModel dx="1036" dy="614" grid="0" gridSize="10" guides="1" tooltips="1" connect="1" arrows="1" fold="1" page="1" pageScale="1" pageWidth="827" pageHeight="1169" math="0" shadow="0">
      <root>
        <mxCell id="WIyWlLk6GJQsqaUBKTNV-0" />
        <mxCell id="WIyWlLk6GJQsqaUBKTNV-1" parent="WIyWlLk6GJQsqaUBKTNV-0" />
        <mxCell id="rBanrbeXsmEmwgRbvLHG-98" value="partie" style="swimlane;fontStyle=3;childLayout=stackLayout;horizontal=1;startSize=26;fillColor=none;horizontalStack=0;resizeParent=1;resizeParentMax=0;resizeLast=0;collapsible=1;marginBottom=0;whiteSpace=wrap;html=1;fontSize=9;" parent="WIyWlLk6GJQsqaUBKTNV-1" vertex="1">
          <mxGeometry x="489" y="167" width="140" height="130" as="geometry" />
        </mxCell>
        <mxCell id="rBanrbeXsmEmwgRbvLHG-99" value="id INTEGER &amp;lt;pk&amp;gt;" style="text;strokeColor=#314354;fillColor=#647687;align=left;verticalAlign=top;spacingLeft=4;spacingRight=4;overflow=hidden;rotatable=0;points=[[0,0.5],[1,0.5]];portConstraint=eastwest;whiteSpace=wrap;html=1;fontColor=#ffffff;fontSize=9;" parent="rBanrbeXsmEmwgRbvLHG-98" vertex="1">
          <mxGeometry y="26" width="140" height="26" as="geometry" />
        </mxCell>
        <mxCell id="rBanrbeXsmEmwgRbvLHG-218" value="chapitre_sauvegarde&amp;nbsp;VARCHAR(255)" style="text;align=left;verticalAlign=top;spacingLeft=4;spacingRight=4;overflow=hidden;rotatable=0;points=[[0,0.5],[1,0.5]];portConstraint=eastwest;whiteSpace=wrap;html=1;fontSize=9;" parent="rBanrbeXsmEmwgRbvLHG-98" vertex="1">
          <mxGeometry y="52" width="140" height="26" as="geometry" />
        </mxCell>
        <mxCell id="rBanrbeXsmEmwgRbvLHG-219" value="id_livre INTEGER &amp;lt;fk&amp;gt;" style="text;align=left;verticalAlign=top;spacingLeft=4;spacingRight=4;overflow=hidden;rotatable=0;points=[[0,0.5],[1,0.5]];portConstraint=eastwest;whiteSpace=wrap;html=1;fontSize=9;" parent="rBanrbeXsmEmwgRbvLHG-98" vertex="1">
          <mxGeometry y="78" width="140" height="26" as="geometry" />
        </mxCell>
        <mxCell id="rBanrbeXsmEmwgRbvLHG-220" value="id_personnage INTEGER &amp;lt;fk&amp;gt;" style="text;align=left;verticalAlign=top;spacingLeft=4;spacingRight=4;overflow=hidden;rotatable=0;points=[[0,0.5],[1,0.5]];portConstraint=eastwest;whiteSpace=wrap;html=1;fontSize=9;" parent="rBanrbeXsmEmwgRbvLHG-98" vertex="1">
          <mxGeometry y="104" width="140" height="26" as="geometry" />
        </mxCell>
        <mxCell id="rBanrbeXsmEmwgRbvLHG-102" value="livre" style="swimlane;fontStyle=3;childLayout=stackLayout;horizontal=1;startSize=30;horizontalStack=0;resizeParent=1;resizeParentMax=0;resizeLast=0;collapsible=1;marginBottom=0;whiteSpace=wrap;html=1;fontSize=9;" parent="WIyWlLk6GJQsqaUBKTNV-1" vertex="1">
          <mxGeometry x="678" y="167" width="140" height="90" as="geometry" />
        </mxCell>
        <mxCell id="rBanrbeXsmEmwgRbvLHG-103" value="id INTEGER &amp;lt;pk&amp;gt;" style="text;strokeColor=#314354;fillColor=#647687;align=left;verticalAlign=middle;spacingLeft=4;spacingRight=4;overflow=hidden;points=[[0,0.5],[1,0.5]];portConstraint=eastwest;rotatable=0;whiteSpace=wrap;html=1;fontColor=#ffffff;fontSize=9;" parent="rBanrbeXsmEmwgRbvLHG-102" vertex="1">
          <mxGeometry y="30" width="140" height="30" as="geometry" />
        </mxCell>
        <mxCell id="rBanrbeXsmEmwgRbvLHG-104" value="nom VARCHAR(255)" style="text;strokeColor=none;fillColor=none;align=left;verticalAlign=middle;spacingLeft=4;spacingRight=4;overflow=hidden;points=[[0,0.5],[1,0.5]];portConstraint=eastwest;rotatable=0;whiteSpace=wrap;html=1;fontSize=9;" parent="rBanrbeXsmEmwgRbvLHG-102" vertex="1">
          <mxGeometry y="60" width="140" height="30" as="geometry" />
        </mxCell>
        <mxCell id="rBanrbeXsmEmwgRbvLHG-106" value="chapitre" style="swimlane;fontStyle=3;childLayout=stackLayout;horizontal=1;startSize=30;horizontalStack=0;resizeParent=1;resizeParentMax=0;resizeLast=0;collapsible=1;marginBottom=0;whiteSpace=wrap;html=1;fontSize=9;" parent="WIyWlLk6GJQsqaUBKTNV-1" vertex="1">
          <mxGeometry x="678" y="287" width="140" height="150" as="geometry" />
        </mxCell>
        <mxCell id="rBanrbeXsmEmwgRbvLHG-107" value="id INTEGER &amp;lt;pk&amp;gt;" style="text;strokeColor=#314354;fillColor=#647687;align=left;verticalAlign=middle;spacingLeft=4;spacingRight=4;overflow=hidden;points=[[0,0.5],[1,0.5]];portConstraint=eastwest;rotatable=0;whiteSpace=wrap;html=1;fontColor=#ffffff;fontSize=9;" parent="rBanrbeXsmEmwgRbvLHG-106" vertex="1">
          <mxGeometry y="30" width="140" height="30" as="geometry" />
        </mxCell>
        <mxCell id="rBanrbeXsmEmwgRbvLHG-236" value="no_chapitre VARCHAR(255)" style="text;strokeColor=none;fillColor=none;align=left;verticalAlign=middle;spacingLeft=4;spacingRight=4;overflow=hidden;points=[[0,0.5],[1,0.5]];portConstraint=eastwest;rotatable=0;whiteSpace=wrap;html=1;fontSize=9;" parent="rBanrbeXsmEmwgRbvLHG-106" vertex="1">
          <mxGeometry y="60" width="140" height="30" as="geometry" />
        </mxCell>
        <mxCell id="rBanrbeXsmEmwgRbvLHG-109" value="texte TEXT" style="text;strokeColor=none;fillColor=none;align=left;verticalAlign=middle;spacingLeft=4;spacingRight=4;overflow=hidden;points=[[0,0.5],[1,0.5]];portConstraint=eastwest;rotatable=0;whiteSpace=wrap;html=1;fontSize=9;" parent="rBanrbeXsmEmwgRbvLHG-106" vertex="1">
          <mxGeometry y="90" width="140" height="30" as="geometry" />
        </mxCell>
        <mxCell id="rBanrbeXsmEmwgRbvLHG-108" value="id_livre INTEGER &amp;lt;fk&amp;gt;" style="text;strokeColor=none;fillColor=none;align=left;verticalAlign=middle;spacingLeft=4;spacingRight=4;overflow=hidden;points=[[0,0.5],[1,0.5]];portConstraint=eastwest;rotatable=0;whiteSpace=wrap;html=1;fontSize=9;" parent="rBanrbeXsmEmwgRbvLHG-106" vertex="1">
          <mxGeometry y="120" width="140" height="30" as="geometry" />
        </mxCell>
        <mxCell id="rBanrbeXsmEmwgRbvLHG-134" value="personnage" style="swimlane;fontStyle=3;childLayout=stackLayout;horizontal=1;startSize=30;horizontalStack=0;resizeParent=1;resizeParentMax=0;resizeLast=0;collapsible=1;marginBottom=0;whiteSpace=wrap;html=1;fontSize=9;" parent="WIyWlLk6GJQsqaUBKTNV-1" vertex="1">
          <mxGeometry x="79.94999999999999" y="167" width="140" height="150" as="geometry" />
        </mxCell>
        <mxCell id="rBanrbeXsmEmwgRbvLHG-135" value="id INTEGER &amp;lt;pk&amp;gt;" style="text;strokeColor=#314354;fillColor=#647687;align=left;verticalAlign=middle;spacingLeft=4;spacingRight=4;overflow=hidden;points=[[0,0.5],[1,0.5]];portConstraint=eastwest;rotatable=0;whiteSpace=wrap;html=1;fontColor=#ffffff;fontSize=9;" parent="rBanrbeXsmEmwgRbvLHG-134" vertex="1">
          <mxGeometry y="30" width="140" height="30" as="geometry" />
        </mxCell>
        <mxCell id="rBanrbeXsmEmwgRbvLHG-136" value="nom VARCHAR(255)" style="text;strokeColor=none;fillColor=none;align=left;verticalAlign=middle;spacingLeft=4;spacingRight=4;overflow=hidden;points=[[0,0.5],[1,0.5]];portConstraint=eastwest;rotatable=0;whiteSpace=wrap;html=1;fontSize=9;" parent="rBanrbeXsmEmwgRbvLHG-134" vertex="1">
          <mxGeometry y="60" width="140" height="30" as="geometry" />
        </mxCell>
        <mxCell id="pWIpgDDH-Ss4ynfI_dkX-6" value="endurance INTEGER" style="text;strokeColor=none;fillColor=none;align=left;verticalAlign=middle;spacingLeft=4;spacingRight=4;overflow=hidden;points=[[0,0.5],[1,0.5]];portConstraint=eastwest;rotatable=0;whiteSpace=wrap;html=1;fontSize=9;" parent="rBanrbeXsmEmwgRbvLHG-134" vertex="1">
          <mxGeometry y="90" width="140" height="30" as="geometry" />
        </mxCell>
        <mxCell id="pWIpgDDH-Ss4ynfI_dkX-7" value="habilete INTEGER" style="text;strokeColor=none;fillColor=none;align=left;verticalAlign=middle;spacingLeft=4;spacingRight=4;overflow=hidden;points=[[0,0.5],[1,0.5]];portConstraint=eastwest;rotatable=0;whiteSpace=wrap;html=1;fontSize=9;" parent="rBanrbeXsmEmwgRbvLHG-134" vertex="1">
          <mxGeometry y="120" width="140" height="30" as="geometry" />
        </mxCell>
        <mxCell id="rBanrbeXsmEmwgRbvLHG-167" value="sac_a_dos" style="swimlane;fontStyle=3;childLayout=stackLayout;horizontal=1;startSize=30;horizontalStack=0;resizeParent=1;resizeParentMax=0;resizeLast=0;collapsible=1;marginBottom=0;whiteSpace=wrap;html=1;fontSize=9;" parent="WIyWlLk6GJQsqaUBKTNV-1" vertex="1">
          <mxGeometry x="79.94999999999999" y="377" width="140" height="210" as="geometry" />
        </mxCell>
        <mxCell id="rBanrbeXsmEmwgRbvLHG-168" value="id INTEGER &amp;lt;pk&amp;gt;" style="text;strokeColor=#314354;fillColor=#647687;align=left;verticalAlign=middle;spacingLeft=4;spacingRight=4;overflow=hidden;points=[[0,0.5],[1,0.5]];portConstraint=eastwest;rotatable=0;whiteSpace=wrap;html=1;fontColor=#ffffff;fontSize=9;" parent="rBanrbeXsmEmwgRbvLHG-167" vertex="1">
          <mxGeometry y="30" width="140" height="30" as="geometry" />
        </mxCell>
        <mxCell id="pWIpgDDH-Ss4ynfI_dkX-8" value="objets TEXT&amp;nbsp;" style="text;strokeColor=none;fillColor=none;align=left;verticalAlign=middle;spacingLeft=4;spacingRight=4;overflow=hidden;points=[[0,0.5],[1,0.5]];portConstraint=eastwest;rotatable=0;whiteSpace=wrap;html=1;fontSize=9;" parent="rBanrbeXsmEmwgRbvLHG-167" vertex="1">
          <mxGeometry y="60" width="140" height="30" as="geometry" />
        </mxCell>
        <mxCell id="pWIpgDDH-Ss4ynfI_dkX-9" value="repas TEXT" style="text;strokeColor=none;fillColor=none;align=left;verticalAlign=middle;spacingLeft=4;spacingRight=4;overflow=hidden;points=[[0,0.5],[1,0.5]];portConstraint=eastwest;rotatable=0;whiteSpace=wrap;html=1;fontSize=9;" parent="rBanrbeXsmEmwgRbvLHG-167" vertex="1">
          <mxGeometry y="90" width="140" height="30" as="geometry" />
        </mxCell>
        <mxCell id="pWIpgDDH-Ss4ynfI_dkX-10" value="objets_speciaux TEXT" style="text;strokeColor=none;fillColor=none;align=left;verticalAlign=middle;spacingLeft=4;spacingRight=4;overflow=hidden;points=[[0,0.5],[1,0.5]];portConstraint=eastwest;rotatable=0;whiteSpace=wrap;html=1;fontSize=9;" parent="rBanrbeXsmEmwgRbvLHG-167" vertex="1">
          <mxGeometry y="120" width="140" height="30" as="geometry" />
        </mxCell>
        <mxCell id="pWIpgDDH-Ss4ynfI_dkX-12" value="bourse TEXT &amp;lt;c01&amp;gt;" style="text;strokeColor=none;fillColor=none;align=left;verticalAlign=middle;spacingLeft=4;spacingRight=4;overflow=hidden;points=[[0,0.5],[1,0.5]];portConstraint=eastwest;rotatable=0;whiteSpace=wrap;html=1;fontSize=9;" parent="rBanrbeXsmEmwgRbvLHG-167" vertex="1">
          <mxGeometry y="150" width="140" height="30" as="geometry" />
        </mxCell>
        <mxCell id="rBanrbeXsmEmwgRbvLHG-171" value="id_personnage INTEGER &amp;lt;fk&amp;gt;" style="text;strokeColor=none;fillColor=none;align=left;verticalAlign=middle;spacingLeft=4;spacingRight=4;overflow=hidden;points=[[0,0.5],[1,0.5]];portConstraint=eastwest;rotatable=0;whiteSpace=wrap;html=1;fontSize=9;" parent="rBanrbeXsmEmwgRbvLHG-167" vertex="1">
          <mxGeometry y="180" width="140" height="30" as="geometry" />
        </mxCell>
        <mxCell id="rBanrbeXsmEmwgRbvLHG-209" style="edgeStyle=orthogonalEdgeStyle;rounded=0;orthogonalLoop=1;jettySize=auto;html=1;entryX=1;entryY=0.5;entryDx=0;entryDy=0;fontSize=9;exitX=1;exitY=0.5;exitDx=0;exitDy=0;" parent="WIyWlLk6GJQsqaUBKTNV-1" source="rBanrbeXsmEmwgRbvLHG-108" target="rBanrbeXsmEmwgRbvLHG-102" edge="1">
          <mxGeometry relative="1" as="geometry">
            <Array as="points">
              <mxPoint x="891" y="422" />
              <mxPoint x="891" y="212" />
            </Array>
          </mxGeometry>
        </mxCell>
        <mxCell id="rBanrbeXsmEmwgRbvLHG-238" style="edgeStyle=orthogonalEdgeStyle;rounded=0;orthogonalLoop=1;jettySize=auto;html=1;entryX=0;entryY=0.5;entryDx=0;entryDy=0;" parent="WIyWlLk6GJQsqaUBKTNV-1" edge="1">
          <mxGeometry relative="1" as="geometry">
            <mxPoint x="400" y="1500.0400000000002" as="sourcePoint" />
          </mxGeometry>
        </mxCell>
        <mxCell id="rBanrbeXsmEmwgRbvLHG-242" style="edgeStyle=orthogonalEdgeStyle;rounded=0;orthogonalLoop=1;jettySize=auto;html=1;entryX=0;entryY=0.5;entryDx=0;entryDy=0;" parent="WIyWlLk6GJQsqaUBKTNV-1" edge="1">
          <mxGeometry relative="1" as="geometry">
            <mxPoint x="450" y="1620" as="targetPoint" />
          </mxGeometry>
        </mxCell>
        <mxCell id="rBanrbeXsmEmwgRbvLHG-243" style="edgeStyle=orthogonalEdgeStyle;rounded=0;orthogonalLoop=1;jettySize=auto;html=1;fontSize=9;exitX=0;exitY=0.5;exitDx=0;exitDy=0;entryX=0;entryY=0.5;entryDx=0;entryDy=0;" parent="WIyWlLk6GJQsqaUBKTNV-1" source="rBanrbeXsmEmwgRbvLHG-171" target="rBanrbeXsmEmwgRbvLHG-135" edge="1">
          <mxGeometry relative="1" as="geometry">
            <mxPoint x="42" y="224" as="targetPoint" />
            <Array as="points">
              <mxPoint x="18" y="572" />
              <mxPoint x="18" y="212" />
            </Array>
          </mxGeometry>
        </mxCell>
        <mxCell id="pWIpgDDH-Ss4ynfI_dkX-16" style="edgeStyle=orthogonalEdgeStyle;rounded=0;orthogonalLoop=1;jettySize=auto;html=1;entryX=0;entryY=0.5;entryDx=0;entryDy=0;strokeColor=#FFFFFF;fontColor=#FFFFFF;fontSize=9;" parent="WIyWlLk6GJQsqaUBKTNV-1" source="rBanrbeXsmEmwgRbvLHG-219" target="rBanrbeXsmEmwgRbvLHG-102" edge="1">
          <mxGeometry relative="1" as="geometry" />
        </mxCell>
        <mxCell id="pWIpgDDH-Ss4ynfI_dkX-17" style="edgeStyle=orthogonalEdgeStyle;rounded=0;orthogonalLoop=1;jettySize=auto;html=1;entryX=0.995;entryY=0.317;entryDx=0;entryDy=0;entryPerimeter=0;strokeColor=#FFFFFF;fontColor=#FFFFFF;fontSize=9;" parent="WIyWlLk6GJQsqaUBKTNV-1" source="rBanrbeXsmEmwgRbvLHG-220" target="rBanrbeXsmEmwgRbvLHG-135" edge="1">
          <mxGeometry relative="1" as="geometry">
            <Array as="points">
              <mxPoint x="332" y="284" />
              <mxPoint x="332" y="207" />
            </Array>
          </mxGeometry>
        </mxCell>
        <mxCell id="pWIpgDDH-Ss4ynfI_dkX-18" value="&lt;h1 style=&quot;text-align: justify;&quot;&gt;&lt;font color=&quot;#fafafa&quot;&gt;Diagramme de classes UML&lt;/font&gt;&lt;/h1&gt;&lt;div style=&quot;text-align: justify;&quot;&gt;&lt;font color=&quot;#fafafa&quot;&gt;Ici, je rédige un diagramme de classes UML pour un Travail Pratique en Base de Données 2.&amp;nbsp;&lt;/font&gt;&lt;/div&gt;&lt;div style=&quot;text-align: justify;&quot;&gt;&lt;font color=&quot;#fafafa&quot;&gt;&lt;br&gt;&lt;/font&gt;&lt;/div&gt;&lt;div style=&quot;text-align: justify;&quot;&gt;&lt;font color=&quot;#fafafa&quot;&gt;Ma base de données sert à gérer les informations d&#39;une partie de &quot;Livre dont vous êtes le héros&quot;. Un utilisateur peut avoir commencé plusieurs parties, chacune d&#39;entre-elle concerne un livre et un personnage. Le livre possède des chapitres. Le personnage possède un sac à dos.&lt;/font&gt;&lt;/div&gt;" style="text;html=1;strokeColor=none;fillColor=none;spacing=5;spacingTop=-20;whiteSpace=wrap;overflow=hidden;rounded=0;fontColor=#1A1A1A;" parent="WIyWlLk6GJQsqaUBKTNV-1" vertex="1">
          <mxGeometry x="12" y="12" width="479" height="120" as="geometry" />
        </mxCell>
        <mxCell id="pWIpgDDH-Ss4ynfI_dkX-19" value="&lt;h1 style=&quot;text-align: justify;&quot;&gt;&lt;font color=&quot;#fafafa&quot;&gt;Contraintes&lt;/font&gt;&lt;/h1&gt;&lt;p style=&quot;text-align: justify;&quot;&gt;&lt;font color=&quot;#fafafa&quot;&gt;c01 : vérifier que la bourse ne peut pas dépasser 50.&lt;/font&gt;&lt;/p&gt;&lt;p style=&quot;text-align: justify;&quot;&gt;&lt;font color=&quot;#fafafa&quot;&gt;&lt;br&gt;&lt;/font&gt;&lt;/p&gt;&lt;p style=&quot;text-align: justify;&quot;&gt;c&lt;/p&gt;&lt;p style=&quot;text-align: justify;&quot;&gt;&lt;font color=&quot;#fafafa&quot;&gt;&lt;br&gt;&lt;/font&gt;&lt;/p&gt;&lt;p style=&quot;text-align: justify;&quot;&gt;&lt;font color=&quot;#fafafa&quot;&gt;&lt;br&gt;&lt;/font&gt;&lt;/p&gt;" style="text;html=1;strokeColor=none;fillColor=none;spacing=5;spacingTop=-20;whiteSpace=wrap;overflow=hidden;rounded=0;fontColor=#1A1A1A;" parent="WIyWlLk6GJQsqaUBKTNV-1" vertex="1">
          <mxGeometry x="509" y="663" width="190" height="219" as="geometry" />
        </mxCell>
        <mxCell id="pWIpgDDH-Ss4ynfI_dkX-24" value="discipline_kai" style="swimlane;fontStyle=3;childLayout=stackLayout;horizontal=1;startSize=30;horizontalStack=0;resizeParent=1;resizeParentMax=0;resizeLast=0;collapsible=1;marginBottom=0;whiteSpace=wrap;html=1;fontSize=9;" parent="WIyWlLk6GJQsqaUBKTNV-1" vertex="1">
          <mxGeometry x="469" y="504" width="140" height="90" as="geometry" />
        </mxCell>
        <mxCell id="pWIpgDDH-Ss4ynfI_dkX-25" value="id INTEGER &amp;lt;pk&amp;gt;" style="text;strokeColor=#314354;fillColor=#647687;align=left;verticalAlign=middle;spacingLeft=4;spacingRight=4;overflow=hidden;points=[[0,0.5],[1,0.5]];portConstraint=eastwest;rotatable=0;whiteSpace=wrap;html=1;fontColor=#ffffff;fontSize=9;" parent="pWIpgDDH-Ss4ynfI_dkX-24" vertex="1">
          <mxGeometry y="30" width="140" height="30" as="geometry" />
        </mxCell>
        <mxCell id="pWIpgDDH-Ss4ynfI_dkX-26" value="nom VARCHAR(255)" style="text;strokeColor=none;fillColor=none;align=left;verticalAlign=middle;spacingLeft=4;spacingRight=4;overflow=hidden;points=[[0,0.5],[1,0.5]];portConstraint=eastwest;rotatable=0;whiteSpace=wrap;html=1;fontSize=9;" parent="pWIpgDDH-Ss4ynfI_dkX-24" vertex="1">
          <mxGeometry y="60" width="140" height="30" as="geometry" />
        </mxCell>
        <mxCell id="pWIpgDDH-Ss4ynfI_dkX-31" value="arme" style="swimlane;fontStyle=3;childLayout=stackLayout;horizontal=1;startSize=30;horizontalStack=0;resizeParent=1;resizeParentMax=0;resizeLast=0;collapsible=1;marginBottom=0;whiteSpace=wrap;html=1;fontSize=9;" parent="WIyWlLk6GJQsqaUBKTNV-1" vertex="1">
          <mxGeometry x="256" y="479" width="140" height="90" as="geometry" />
        </mxCell>
        <mxCell id="pWIpgDDH-Ss4ynfI_dkX-32" value="id INTEGER &amp;lt;pk&amp;gt;" style="text;strokeColor=#314354;fillColor=#647687;align=left;verticalAlign=middle;spacingLeft=4;spacingRight=4;overflow=hidden;points=[[0,0.5],[1,0.5]];portConstraint=eastwest;rotatable=0;whiteSpace=wrap;html=1;fontColor=#ffffff;fontSize=9;" parent="pWIpgDDH-Ss4ynfI_dkX-31" vertex="1">
          <mxGeometry y="30" width="140" height="30" as="geometry" />
        </mxCell>
        <mxCell id="pWIpgDDH-Ss4ynfI_dkX-33" value="nom VARCHAR(255)" style="text;strokeColor=none;fillColor=none;align=left;verticalAlign=middle;spacingLeft=4;spacingRight=4;overflow=hidden;points=[[0,0.5],[1,0.5]];portConstraint=eastwest;rotatable=0;whiteSpace=wrap;html=1;fontSize=9;" parent="pWIpgDDH-Ss4ynfI_dkX-31" vertex="1">
          <mxGeometry y="60" width="140" height="30" as="geometry" />
        </mxCell>
        <mxCell id="pWIpgDDH-Ss4ynfI_dkX-36" value="personnage_arme" style="swimlane;fontStyle=3;childLayout=stackLayout;horizontal=1;startSize=30;horizontalStack=0;resizeParent=1;resizeParentMax=0;resizeLast=0;collapsible=1;marginBottom=0;whiteSpace=wrap;html=1;fontSize=9;" parent="WIyWlLk6GJQsqaUBKTNV-1" vertex="1">
          <mxGeometry x="256" y="324" width="140" height="120" as="geometry" />
        </mxCell>
        <mxCell id="pWIpgDDH-Ss4ynfI_dkX-37" value="id INTEGER &amp;lt;pk&amp;gt;" style="text;strokeColor=#314354;fillColor=#647687;align=left;verticalAlign=middle;spacingLeft=4;spacingRight=4;overflow=hidden;points=[[0,0.5],[1,0.5]];portConstraint=eastwest;rotatable=0;whiteSpace=wrap;html=1;fontColor=#ffffff;fontSize=9;" parent="pWIpgDDH-Ss4ynfI_dkX-36" vertex="1">
          <mxGeometry y="30" width="140" height="30" as="geometry" />
        </mxCell>
        <mxCell id="pWIpgDDH-Ss4ynfI_dkX-38" value="id_arme INTEGER &amp;lt;fk&amp;gt;" style="text;strokeColor=none;fillColor=none;align=left;verticalAlign=middle;spacingLeft=4;spacingRight=4;overflow=hidden;points=[[0,0.5],[1,0.5]];portConstraint=eastwest;rotatable=0;whiteSpace=wrap;html=1;fontSize=9;" parent="pWIpgDDH-Ss4ynfI_dkX-36" vertex="1">
          <mxGeometry y="60" width="140" height="30" as="geometry" />
        </mxCell>
        <mxCell id="pWIpgDDH-Ss4ynfI_dkX-42" value="id_personnage INTEGER &amp;lt;fk&amp;gt;" style="text;strokeColor=none;fillColor=none;align=left;verticalAlign=middle;spacingLeft=4;spacingRight=4;overflow=hidden;points=[[0,0.5],[1,0.5]];portConstraint=eastwest;rotatable=0;whiteSpace=wrap;html=1;fontSize=9;" parent="pWIpgDDH-Ss4ynfI_dkX-36" vertex="1">
          <mxGeometry y="90" width="140" height="30" as="geometry" />
        </mxCell>
        <mxCell id="pWIpgDDH-Ss4ynfI_dkX-43" value="personnage_kai" style="swimlane;fontStyle=3;childLayout=stackLayout;horizontal=1;startSize=30;horizontalStack=0;resizeParent=1;resizeParentMax=0;resizeLast=0;collapsible=1;marginBottom=0;whiteSpace=wrap;html=1;fontSize=9;" parent="WIyWlLk6GJQsqaUBKTNV-1" vertex="1">
          <mxGeometry x="469" y="324" width="140" height="150" as="geometry" />
        </mxCell>
        <mxCell id="pWIpgDDH-Ss4ynfI_dkX-44" value="id INTEGER &amp;lt;pk&amp;gt;" style="text;strokeColor=#314354;fillColor=#647687;align=left;verticalAlign=middle;spacingLeft=4;spacingRight=4;overflow=hidden;points=[[0,0.5],[1,0.5]];portConstraint=eastwest;rotatable=0;whiteSpace=wrap;html=1;fontColor=#ffffff;fontSize=9;" parent="pWIpgDDH-Ss4ynfI_dkX-43" vertex="1">
          <mxGeometry y="30" width="140" height="30" as="geometry" />
        </mxCell>
        <mxCell id="pWIpgDDH-Ss4ynfI_dkX-45" value="id_kai INTEGER &amp;lt;fk&amp;gt;" style="text;strokeColor=none;fillColor=none;align=left;verticalAlign=middle;spacingLeft=4;spacingRight=4;overflow=hidden;points=[[0,0.5],[1,0.5]];portConstraint=eastwest;rotatable=0;whiteSpace=wrap;html=1;fontSize=9;" parent="pWIpgDDH-Ss4ynfI_dkX-43" vertex="1">
          <mxGeometry y="60" width="140" height="30" as="geometry" />
        </mxCell>
        <mxCell id="pWIpgDDH-Ss4ynfI_dkX-46" value="id_personnage INTEGER &amp;lt;fk&amp;gt;" style="text;strokeColor=none;fillColor=none;align=left;verticalAlign=middle;spacingLeft=4;spacingRight=4;overflow=hidden;points=[[0,0.5],[1,0.5]];portConstraint=eastwest;rotatable=0;whiteSpace=wrap;html=1;fontSize=9;" parent="pWIpgDDH-Ss4ynfI_dkX-43" vertex="1">
          <mxGeometry y="90" width="140" height="30" as="geometry" />
        </mxCell>
        <mxCell id="pWIpgDDH-Ss4ynfI_dkX-27" value="notes TEXT" style="text;strokeColor=none;fillColor=none;align=left;verticalAlign=middle;spacingLeft=4;spacingRight=4;overflow=hidden;points=[[0,0.5],[1,0.5]];portConstraint=eastwest;rotatable=0;whiteSpace=wrap;html=1;fontSize=9;" parent="pWIpgDDH-Ss4ynfI_dkX-43" vertex="1">
          <mxGeometry y="120" width="140" height="30" as="geometry" />
        </mxCell>
        <mxCell id="pWIpgDDH-Ss4ynfI_dkX-47" style="edgeStyle=orthogonalEdgeStyle;rounded=0;orthogonalLoop=1;jettySize=auto;html=1;strokeColor=#FFFFFF;fontColor=#FFFFFF;exitX=0;exitY=0.5;exitDx=0;exitDy=0;" parent="WIyWlLk6GJQsqaUBKTNV-1" source="pWIpgDDH-Ss4ynfI_dkX-46" edge="1">
          <mxGeometry relative="1" as="geometry">
            <mxPoint x="220" y="207" as="targetPoint" />
            <Array as="points">
              <mxPoint x="428" y="429" />
              <mxPoint x="428" y="284" />
              <mxPoint x="332" y="284" />
              <mxPoint x="332" y="206" />
              <mxPoint x="220" y="206" />
            </Array>
          </mxGeometry>
        </mxCell>
        <mxCell id="pWIpgDDH-Ss4ynfI_dkX-48" style="edgeStyle=orthogonalEdgeStyle;rounded=0;orthogonalLoop=1;jettySize=auto;html=1;strokeColor=#FFFFFF;fontColor=#FFFFFF;" parent="WIyWlLk6GJQsqaUBKTNV-1" source="pWIpgDDH-Ss4ynfI_dkX-42" edge="1">
          <mxGeometry relative="1" as="geometry">
            <mxPoint x="220" y="207" as="targetPoint" />
            <Array as="points">
              <mxPoint x="428" y="429" />
              <mxPoint x="428" y="284" />
              <mxPoint x="332" y="284" />
              <mxPoint x="332" y="206" />
              <mxPoint x="220" y="206" />
            </Array>
          </mxGeometry>
        </mxCell>
        <mxCell id="pWIpgDDH-Ss4ynfI_dkX-49" style="edgeStyle=orthogonalEdgeStyle;rounded=0;orthogonalLoop=1;jettySize=auto;html=1;entryX=0;entryY=0.5;entryDx=0;entryDy=0;strokeColor=#FFFFFF;fontColor=#FFFFFF;" parent="WIyWlLk6GJQsqaUBKTNV-1" source="pWIpgDDH-Ss4ynfI_dkX-38" target="pWIpgDDH-Ss4ynfI_dkX-32" edge="1">
          <mxGeometry relative="1" as="geometry" />
        </mxCell>
        <mxCell id="pWIpgDDH-Ss4ynfI_dkX-50" style="edgeStyle=orthogonalEdgeStyle;rounded=0;orthogonalLoop=1;jettySize=auto;html=1;entryX=1;entryY=0.5;entryDx=0;entryDy=0;strokeColor=#FFFFFF;fontColor=#FFFFFF;exitX=1;exitY=0.5;exitDx=0;exitDy=0;" parent="WIyWlLk6GJQsqaUBKTNV-1" source="pWIpgDDH-Ss4ynfI_dkX-45" target="pWIpgDDH-Ss4ynfI_dkX-25" edge="1">
          <mxGeometry relative="1" as="geometry" />
        </mxCell>
        <mxCell id="pWIpgDDH-Ss4ynfI_dkX-55" value="lien_chapitre" style="swimlane;fontStyle=3;childLayout=stackLayout;horizontal=1;startSize=30;horizontalStack=0;resizeParent=1;resizeParentMax=0;resizeLast=0;collapsible=1;marginBottom=0;whiteSpace=wrap;html=1;fontSize=9;" parent="WIyWlLk6GJQsqaUBKTNV-1" vertex="1">
          <mxGeometry x="678" y="449" width="140" height="150" as="geometry" />
        </mxCell>
        <mxCell id="pWIpgDDH-Ss4ynfI_dkX-56" value="id INTEGER &amp;lt;pk&amp;gt;" style="text;strokeColor=#314354;fillColor=#647687;align=left;verticalAlign=middle;spacingLeft=4;spacingRight=4;overflow=hidden;points=[[0,0.5],[1,0.5]];portConstraint=eastwest;rotatable=0;whiteSpace=wrap;html=1;fontColor=#ffffff;fontSize=9;" parent="pWIpgDDH-Ss4ynfI_dkX-55" vertex="1">
          <mxGeometry y="30" width="140" height="30" as="geometry" />
        </mxCell>
        <mxCell id="pWIpgDDH-Ss4ynfI_dkX-57" value="no_chapitre_origine VARCHAR(255)" style="text;strokeColor=none;fillColor=none;align=left;verticalAlign=middle;spacingLeft=4;spacingRight=4;overflow=hidden;points=[[0,0.5],[1,0.5]];portConstraint=eastwest;rotatable=0;whiteSpace=wrap;html=1;fontSize=9;" parent="pWIpgDDH-Ss4ynfI_dkX-55" vertex="1">
          <mxGeometry y="60" width="140" height="30" as="geometry" />
        </mxCell>
        <mxCell id="pWIpgDDH-Ss4ynfI_dkX-58" value="no_chapitre_desitnation VARCHAR(255)" style="text;strokeColor=none;fillColor=none;align=left;verticalAlign=middle;spacingLeft=4;spacingRight=4;overflow=hidden;points=[[0,0.5],[1,0.5]];portConstraint=eastwest;rotatable=0;whiteSpace=wrap;html=1;fontSize=9;" parent="pWIpgDDH-Ss4ynfI_dkX-55" vertex="1">
          <mxGeometry y="90" width="140" height="30" as="geometry" />
        </mxCell>
        <mxCell id="pWIpgDDH-Ss4ynfI_dkX-59" value="id_livre INTEGER &amp;lt;fk&amp;gt;" style="text;strokeColor=none;fillColor=none;align=left;verticalAlign=middle;spacingLeft=4;spacingRight=4;overflow=hidden;points=[[0,0.5],[1,0.5]];portConstraint=eastwest;rotatable=0;whiteSpace=wrap;html=1;fontSize=9;" parent="pWIpgDDH-Ss4ynfI_dkX-55" vertex="1">
          <mxGeometry y="120" width="140" height="30" as="geometry" />
        </mxCell>
        <mxCell id="pWIpgDDH-Ss4ynfI_dkX-60" style="edgeStyle=orthogonalEdgeStyle;rounded=0;orthogonalLoop=1;jettySize=auto;html=1;entryX=1;entryY=0.5;entryDx=0;entryDy=0;strokeColor=#FFFFFF;fontColor=#FFFFFF;exitX=1;exitY=0.5;exitDx=0;exitDy=0;" parent="WIyWlLk6GJQsqaUBKTNV-1" source="pWIpgDDH-Ss4ynfI_dkX-59" target="rBanrbeXsmEmwgRbvLHG-102" edge="1">
          <mxGeometry relative="1" as="geometry">
            <Array as="points">
              <mxPoint x="891" y="584" />
              <mxPoint x="891" y="212" />
            </Array>
          </mxGeometry>
        </mxCell>
      </root>
    </mxGraphModel>
  </diagram>
</mxfile>
